M48
; DRILL file {KiCad 6.0.4-6f826c9f35~116~ubuntu20.04.1} date Wed 30 Mar 2022 10:07:17 PM
; FORMAT={-:-/ absolute / metric / decimal}
; #@! TF.CreationDate,2022-03-30T22:07:17-04:00
; #@! TF.GenerationSoftware,Kicad,Pcbnew,6.0.4-6f826c9f35~116~ubuntu20.04.1
; #@! TF.FileFunction,Plated,1,2,PTH
FMAT,2
METRIC
; #@! TA.AperFunction,Plated,PTH,ViaDrill
T1C0.200
; #@! TA.AperFunction,Plated,PTH,ViaDrill
T2C0.300
%
G90
G05
T1
X62.6Y-44.8
X63.6Y-50.0
X64.6Y-41.4
X64.925Y-36.0
X67.5Y-43.0
X67.9Y-36.1
X68.4Y-41.7
X68.8Y-37.0
X72.3Y-52.0
X72.775Y-37.224
X74.4Y-48.6
X75.2Y-39.7
X75.2Y-45.4
X75.6Y-51.2
X76.5Y-49.3
X76.8Y-47.5
X77.575Y-52.025
X78.2Y-40.7
X79.424Y-39.349
X81.2Y-52.0
X81.7Y-38.6
X83.8Y-41.9
T2
X61.2Y-37.1
X61.6Y-37.9
X62.025Y-43.4
X62.2Y-38.5
X66.7Y-39.6
X67.2Y-47.5
X67.3Y-48.7
X69.5Y-40.2
X71.1Y-44.1
X71.4Y-48.2
X71.434Y-37.547
X73.4Y-40.0
X73.5Y-44.5
X75.9Y-42.7
X76.1Y-44.0
X80.8Y-48.7
X81.6Y-48.9
X82.4Y-48.9
T0
M30
