%FSLAX45Y45*%
G04 Gerber Fmt 4.5, Leading zero omitted, Abs format (unit mm)*
G04 Created by KiCad (PCBNEW 6.0.4-6f826c9f35~116~ubuntu20.04.1) date 2022-03-30 22:07:18*
%MOMM*%
%LPD*%
G01*
G04 APERTURE LIST*
%TA.AperFunction,Profile*%
%ADD10C,0.100000*%
%TD*%
%ADD11C,0.200000*%
%ADD12C,0.020000*%
%ADD13C,0.030000*%
G04 APERTURE END LIST*
D10*
X5980000Y-5250000D02*
X5980000Y-3400000D01*
X8440000Y-5250000D02*
X5980000Y-5250000D01*
X8440000Y-3400000D02*
X8440000Y-5250000D01*
X5980000Y-3400000D02*
X8440000Y-3400000D01*
D11*
D12*
X6250000Y-4470000D02*
X6270000Y-4490000D01*
X6270000Y-4470000D02*
X6250000Y-4490000D01*
X6350000Y-4990000D02*
X6370000Y-5010000D01*
X6370000Y-4990000D02*
X6350000Y-5010000D01*
X6450000Y-4130000D02*
X6470000Y-4150000D01*
X6470000Y-4130000D02*
X6450000Y-4150000D01*
X6482500Y-3590000D02*
X6502500Y-3610000D01*
X6502500Y-3590000D02*
X6482500Y-3610000D01*
X6740000Y-4290000D02*
X6760000Y-4310000D01*
X6760000Y-4290000D02*
X6740000Y-4310000D01*
X6780000Y-3600000D02*
X6800000Y-3620000D01*
X6800000Y-3600000D02*
X6780000Y-3620000D01*
X6830000Y-4160000D02*
X6850000Y-4180000D01*
X6850000Y-4160000D02*
X6830000Y-4180000D01*
X6870000Y-3690000D02*
X6890000Y-3710000D01*
X6890000Y-3690000D02*
X6870000Y-3710000D01*
X7220000Y-5190000D02*
X7240000Y-5210000D01*
X7240000Y-5190000D02*
X7220000Y-5210000D01*
X7267550Y-3712450D02*
X7287550Y-3732450D01*
X7287550Y-3712450D02*
X7267550Y-3732450D01*
X7430000Y-4850000D02*
X7450000Y-4870000D01*
X7450000Y-4850000D02*
X7430000Y-4870000D01*
X7510000Y-3960000D02*
X7530000Y-3980000D01*
X7530000Y-3960000D02*
X7510000Y-3980000D01*
X7510000Y-4530000D02*
X7530000Y-4550000D01*
X7530000Y-4530000D02*
X7510000Y-4550000D01*
X7550000Y-5110000D02*
X7570000Y-5130000D01*
X7570000Y-5110000D02*
X7550000Y-5130000D01*
X7640000Y-4920000D02*
X7660000Y-4940000D01*
X7660000Y-4920000D02*
X7640000Y-4940000D01*
X7670000Y-4740000D02*
X7690000Y-4760000D01*
X7690000Y-4740000D02*
X7670000Y-4760000D01*
X7747549Y-5192451D02*
X7767549Y-5212451D01*
X7767549Y-5192451D02*
X7747549Y-5212451D01*
X7810000Y-4060000D02*
X7830000Y-4080000D01*
X7830000Y-4060000D02*
X7810000Y-4080000D01*
X7932450Y-3924950D02*
X7952450Y-3944950D01*
X7952450Y-3924950D02*
X7932450Y-3944950D01*
X8110000Y-5190000D02*
X8130000Y-5210000D01*
X8130000Y-5190000D02*
X8110000Y-5210000D01*
X8160000Y-3850000D02*
X8180000Y-3870000D01*
X8180000Y-3850000D02*
X8160000Y-3870000D01*
X8370000Y-4180000D02*
X8390000Y-4200000D01*
X8390000Y-4180000D02*
X8370000Y-4200000D01*
D13*
X6135000Y-3710000D02*
G75*
G03*
X6135000Y-3710000I-15000J0D01*
G01*
X6175000Y-3790000D02*
G75*
G03*
X6175000Y-3790000I-15000J0D01*
G01*
X6217550Y-4340000D02*
G75*
G03*
X6217550Y-4340000I-15000J0D01*
G01*
X6235000Y-3850000D02*
G75*
G03*
X6235000Y-3850000I-15000J0D01*
G01*
X6685000Y-3960000D02*
G75*
G03*
X6685000Y-3960000I-15000J0D01*
G01*
X6735000Y-4750000D02*
G75*
G03*
X6735000Y-4750000I-15000J0D01*
G01*
X6745000Y-4870000D02*
G75*
G03*
X6745000Y-4870000I-15000J0D01*
G01*
X6965000Y-4020000D02*
G75*
G03*
X6965000Y-4020000I-15000J0D01*
G01*
X7125000Y-4410000D02*
G75*
G03*
X7125000Y-4410000I-15000J0D01*
G01*
X7155000Y-4820000D02*
G75*
G03*
X7155000Y-4820000I-15000J0D01*
G01*
X7158438Y-3754685D02*
G75*
G03*
X7158438Y-3754685I-15000J0D01*
G01*
X7355000Y-4000000D02*
G75*
G03*
X7355000Y-4000000I-15000J0D01*
G01*
X7365000Y-4450000D02*
G75*
G03*
X7365000Y-4450000I-15000J0D01*
G01*
X7605000Y-4270000D02*
G75*
G03*
X7605000Y-4270000I-15000J0D01*
G01*
X7625000Y-4400000D02*
G75*
G03*
X7625000Y-4400000I-15000J0D01*
G01*
X8095000Y-4870000D02*
G75*
G03*
X8095000Y-4870000I-15000J0D01*
G01*
X8175000Y-4890000D02*
G75*
G03*
X8175000Y-4890000I-15000J0D01*
G01*
X8255000Y-4890000D02*
G75*
G03*
X8255000Y-4890000I-15000J0D01*
G01*
D11*
X6232619Y-5565476D02*
X6232619Y-5365476D01*
X6280238Y-5365476D01*
X6308809Y-5375000D01*
X6327857Y-5394048D01*
X6337381Y-5413095D01*
X6346905Y-5451190D01*
X6346905Y-5479762D01*
X6337381Y-5517857D01*
X6327857Y-5536905D01*
X6308809Y-5555952D01*
X6280238Y-5565476D01*
X6232619Y-5565476D01*
X6432619Y-5565476D02*
X6432619Y-5432143D01*
X6432619Y-5470238D02*
X6442143Y-5451190D01*
X6451667Y-5441667D01*
X6470714Y-5432143D01*
X6489762Y-5432143D01*
X6556428Y-5565476D02*
X6556428Y-5432143D01*
X6556428Y-5365476D02*
X6546905Y-5375000D01*
X6556428Y-5384524D01*
X6565952Y-5375000D01*
X6556428Y-5365476D01*
X6556428Y-5384524D01*
X6680238Y-5565476D02*
X6661190Y-5555952D01*
X6651667Y-5536905D01*
X6651667Y-5365476D01*
X6785000Y-5565476D02*
X6765952Y-5555952D01*
X6756428Y-5536905D01*
X6756428Y-5365476D01*
X7013571Y-5565476D02*
X7013571Y-5365476D01*
X7080238Y-5508333D01*
X7146905Y-5365476D01*
X7146905Y-5565476D01*
X7327857Y-5565476D02*
X7327857Y-5460714D01*
X7318333Y-5441667D01*
X7299286Y-5432143D01*
X7261190Y-5432143D01*
X7242143Y-5441667D01*
X7327857Y-5555952D02*
X7308809Y-5565476D01*
X7261190Y-5565476D01*
X7242143Y-5555952D01*
X7232619Y-5536905D01*
X7232619Y-5517857D01*
X7242143Y-5498810D01*
X7261190Y-5489286D01*
X7308809Y-5489286D01*
X7327857Y-5479762D01*
X7423095Y-5432143D02*
X7423095Y-5632143D01*
X7423095Y-5441667D02*
X7442143Y-5432143D01*
X7480238Y-5432143D01*
X7499286Y-5441667D01*
X7508809Y-5451190D01*
X7518333Y-5470238D01*
X7518333Y-5527381D01*
X7508809Y-5546429D01*
X7499286Y-5555952D01*
X7480238Y-5565476D01*
X7442143Y-5565476D01*
X7423095Y-5555952D01*
X7604048Y-5546429D02*
X7613571Y-5555952D01*
X7604048Y-5565476D01*
X7594524Y-5555952D01*
X7604048Y-5546429D01*
X7604048Y-5565476D01*
X7604048Y-5441667D02*
X7613571Y-5451190D01*
X7604048Y-5460714D01*
X7594524Y-5451190D01*
X7604048Y-5441667D01*
X7604048Y-5460714D01*
D12*
X5955000Y-5885000D02*
X5975000Y-5905000D01*
X5975000Y-5885000D02*
X5955000Y-5905000D01*
D11*
X6270714Y-5785476D02*
X6289762Y-5785476D01*
X6308809Y-5795000D01*
X6318333Y-5804524D01*
X6327857Y-5823571D01*
X6337381Y-5861667D01*
X6337381Y-5909286D01*
X6327857Y-5947381D01*
X6318333Y-5966428D01*
X6308809Y-5975952D01*
X6289762Y-5985476D01*
X6270714Y-5985476D01*
X6251667Y-5975952D01*
X6242143Y-5966428D01*
X6232619Y-5947381D01*
X6223095Y-5909286D01*
X6223095Y-5861667D01*
X6232619Y-5823571D01*
X6242143Y-5804524D01*
X6251667Y-5795000D01*
X6270714Y-5785476D01*
X6423095Y-5966428D02*
X6432619Y-5975952D01*
X6423095Y-5985476D01*
X6413571Y-5975952D01*
X6423095Y-5966428D01*
X6423095Y-5985476D01*
X6508809Y-5804524D02*
X6518333Y-5795000D01*
X6537381Y-5785476D01*
X6585000Y-5785476D01*
X6604048Y-5795000D01*
X6613571Y-5804524D01*
X6623095Y-5823571D01*
X6623095Y-5842619D01*
X6613571Y-5871190D01*
X6499286Y-5985476D01*
X6623095Y-5985476D01*
X6746905Y-5785476D02*
X6765952Y-5785476D01*
X6785000Y-5795000D01*
X6794524Y-5804524D01*
X6804048Y-5823571D01*
X6813571Y-5861667D01*
X6813571Y-5909286D01*
X6804048Y-5947381D01*
X6794524Y-5966428D01*
X6785000Y-5975952D01*
X6765952Y-5985476D01*
X6746905Y-5985476D01*
X6727857Y-5975952D01*
X6718333Y-5966428D01*
X6708809Y-5947381D01*
X6699286Y-5909286D01*
X6699286Y-5861667D01*
X6708809Y-5823571D01*
X6718333Y-5804524D01*
X6727857Y-5795000D01*
X6746905Y-5785476D01*
X6937381Y-5785476D02*
X6956428Y-5785476D01*
X6975476Y-5795000D01*
X6985000Y-5804524D01*
X6994524Y-5823571D01*
X7004048Y-5861667D01*
X7004048Y-5909286D01*
X6994524Y-5947381D01*
X6985000Y-5966428D01*
X6975476Y-5975952D01*
X6956428Y-5985476D01*
X6937381Y-5985476D01*
X6918333Y-5975952D01*
X6908809Y-5966428D01*
X6899286Y-5947381D01*
X6889762Y-5909286D01*
X6889762Y-5861667D01*
X6899286Y-5823571D01*
X6908809Y-5804524D01*
X6918333Y-5795000D01*
X6937381Y-5785476D01*
X7089762Y-5985476D02*
X7089762Y-5852143D01*
X7089762Y-5871190D02*
X7099286Y-5861667D01*
X7118333Y-5852143D01*
X7146905Y-5852143D01*
X7165952Y-5861667D01*
X7175476Y-5880714D01*
X7175476Y-5985476D01*
X7175476Y-5880714D02*
X7185000Y-5861667D01*
X7204048Y-5852143D01*
X7232619Y-5852143D01*
X7251667Y-5861667D01*
X7261190Y-5880714D01*
X7261190Y-5985476D01*
X7356428Y-5985476D02*
X7356428Y-5852143D01*
X7356428Y-5871190D02*
X7365952Y-5861667D01*
X7385000Y-5852143D01*
X7413571Y-5852143D01*
X7432619Y-5861667D01*
X7442143Y-5880714D01*
X7442143Y-5985476D01*
X7442143Y-5880714D02*
X7451667Y-5861667D01*
X7470714Y-5852143D01*
X7499286Y-5852143D01*
X7518333Y-5861667D01*
X7527857Y-5880714D01*
X7527857Y-5985476D01*
X7918333Y-5775952D02*
X7746905Y-6033095D01*
X8175476Y-5785476D02*
X8194524Y-5785476D01*
X8213571Y-5795000D01*
X8223095Y-5804524D01*
X8232619Y-5823571D01*
X8242143Y-5861667D01*
X8242143Y-5909286D01*
X8232619Y-5947381D01*
X8223095Y-5966428D01*
X8213571Y-5975952D01*
X8194524Y-5985476D01*
X8175476Y-5985476D01*
X8156428Y-5975952D01*
X8146905Y-5966428D01*
X8137381Y-5947381D01*
X8127857Y-5909286D01*
X8127857Y-5861667D01*
X8137381Y-5823571D01*
X8146905Y-5804524D01*
X8156428Y-5795000D01*
X8175476Y-5785476D01*
X8327857Y-5966428D02*
X8337381Y-5975952D01*
X8327857Y-5985476D01*
X8318333Y-5975952D01*
X8327857Y-5966428D01*
X8327857Y-5985476D01*
X8461190Y-5785476D02*
X8480238Y-5785476D01*
X8499286Y-5795000D01*
X8508810Y-5804524D01*
X8518333Y-5823571D01*
X8527857Y-5861667D01*
X8527857Y-5909286D01*
X8518333Y-5947381D01*
X8508810Y-5966428D01*
X8499286Y-5975952D01*
X8480238Y-5985476D01*
X8461190Y-5985476D01*
X8442143Y-5975952D01*
X8432619Y-5966428D01*
X8423095Y-5947381D01*
X8413571Y-5909286D01*
X8413571Y-5861667D01*
X8423095Y-5823571D01*
X8432619Y-5804524D01*
X8442143Y-5795000D01*
X8461190Y-5785476D01*
X8651667Y-5785476D02*
X8670714Y-5785476D01*
X8689762Y-5795000D01*
X8699286Y-5804524D01*
X8708810Y-5823571D01*
X8718333Y-5861667D01*
X8718333Y-5909286D01*
X8708810Y-5947381D01*
X8699286Y-5966428D01*
X8689762Y-5975952D01*
X8670714Y-5985476D01*
X8651667Y-5985476D01*
X8632619Y-5975952D01*
X8623095Y-5966428D01*
X8613571Y-5947381D01*
X8604048Y-5909286D01*
X8604048Y-5861667D01*
X8613571Y-5823571D01*
X8623095Y-5804524D01*
X8632619Y-5795000D01*
X8651667Y-5785476D01*
X8785000Y-5785476D02*
X8918333Y-5785476D01*
X8832619Y-5985476D01*
X9004048Y-5985476D02*
X9042143Y-5985476D01*
X9061190Y-5975952D01*
X9070714Y-5966428D01*
X9089762Y-5937857D01*
X9099286Y-5899762D01*
X9099286Y-5823571D01*
X9089762Y-5804524D01*
X9080238Y-5795000D01*
X9061190Y-5785476D01*
X9023095Y-5785476D01*
X9004048Y-5795000D01*
X8994524Y-5804524D01*
X8985000Y-5823571D01*
X8985000Y-5871190D01*
X8994524Y-5890238D01*
X9004048Y-5899762D01*
X9023095Y-5909286D01*
X9061190Y-5909286D01*
X9080238Y-5899762D01*
X9089762Y-5890238D01*
X9099286Y-5871190D01*
X9175476Y-5785476D02*
X9175476Y-5823571D01*
X9251667Y-5785476D02*
X9251667Y-5823571D01*
X9546905Y-6061667D02*
X9537381Y-6052143D01*
X9518333Y-6023571D01*
X9508810Y-6004524D01*
X9499286Y-5975952D01*
X9489762Y-5928333D01*
X9489762Y-5890238D01*
X9499286Y-5842619D01*
X9508810Y-5814048D01*
X9518333Y-5795000D01*
X9537381Y-5766428D01*
X9546905Y-5756905D01*
X9613571Y-5804524D02*
X9623095Y-5795000D01*
X9642143Y-5785476D01*
X9689762Y-5785476D01*
X9708810Y-5795000D01*
X9718333Y-5804524D01*
X9727857Y-5823571D01*
X9727857Y-5842619D01*
X9718333Y-5871190D01*
X9604048Y-5985476D01*
X9727857Y-5985476D01*
X9804048Y-5804524D02*
X9813571Y-5795000D01*
X9832619Y-5785476D01*
X9880238Y-5785476D01*
X9899286Y-5795000D01*
X9908810Y-5804524D01*
X9918333Y-5823571D01*
X9918333Y-5842619D01*
X9908810Y-5871190D01*
X9794524Y-5985476D01*
X9918333Y-5985476D01*
X10156429Y-5985476D02*
X10156429Y-5785476D01*
X10242143Y-5985476D02*
X10242143Y-5880714D01*
X10232619Y-5861667D01*
X10213571Y-5852143D01*
X10185000Y-5852143D01*
X10165952Y-5861667D01*
X10156429Y-5871190D01*
X10365952Y-5985476D02*
X10346905Y-5975952D01*
X10337381Y-5966428D01*
X10327857Y-5947381D01*
X10327857Y-5890238D01*
X10337381Y-5871190D01*
X10346905Y-5861667D01*
X10365952Y-5852143D01*
X10394524Y-5852143D01*
X10413571Y-5861667D01*
X10423095Y-5871190D01*
X10432619Y-5890238D01*
X10432619Y-5947381D01*
X10423095Y-5966428D01*
X10413571Y-5975952D01*
X10394524Y-5985476D01*
X10365952Y-5985476D01*
X10546905Y-5985476D02*
X10527857Y-5975952D01*
X10518333Y-5956905D01*
X10518333Y-5785476D01*
X10699286Y-5975952D02*
X10680238Y-5985476D01*
X10642143Y-5985476D01*
X10623095Y-5975952D01*
X10613571Y-5956905D01*
X10613571Y-5880714D01*
X10623095Y-5861667D01*
X10642143Y-5852143D01*
X10680238Y-5852143D01*
X10699286Y-5861667D01*
X10708810Y-5880714D01*
X10708810Y-5899762D01*
X10613571Y-5918809D01*
X10785000Y-5975952D02*
X10804048Y-5985476D01*
X10842143Y-5985476D01*
X10861190Y-5975952D01*
X10870714Y-5956905D01*
X10870714Y-5947381D01*
X10861190Y-5928333D01*
X10842143Y-5918809D01*
X10813571Y-5918809D01*
X10794524Y-5909286D01*
X10785000Y-5890238D01*
X10785000Y-5880714D01*
X10794524Y-5861667D01*
X10813571Y-5852143D01*
X10842143Y-5852143D01*
X10861190Y-5861667D01*
X10937381Y-6061667D02*
X10946905Y-6052143D01*
X10965952Y-6023571D01*
X10975476Y-6004524D01*
X10985000Y-5975952D01*
X10994524Y-5928333D01*
X10994524Y-5890238D01*
X10985000Y-5842619D01*
X10975476Y-5814048D01*
X10965952Y-5795000D01*
X10946905Y-5766428D01*
X10937381Y-5756905D01*
D13*
X5975000Y-6159000D02*
G75*
G03*
X5975000Y-6159000I-15000J0D01*
G01*
D11*
X6270714Y-6049476D02*
X6289762Y-6049476D01*
X6308809Y-6059000D01*
X6318333Y-6068524D01*
X6327857Y-6087571D01*
X6337381Y-6125667D01*
X6337381Y-6173286D01*
X6327857Y-6211381D01*
X6318333Y-6230428D01*
X6308809Y-6239952D01*
X6289762Y-6249476D01*
X6270714Y-6249476D01*
X6251667Y-6239952D01*
X6242143Y-6230428D01*
X6232619Y-6211381D01*
X6223095Y-6173286D01*
X6223095Y-6125667D01*
X6232619Y-6087571D01*
X6242143Y-6068524D01*
X6251667Y-6059000D01*
X6270714Y-6049476D01*
X6423095Y-6230428D02*
X6432619Y-6239952D01*
X6423095Y-6249476D01*
X6413571Y-6239952D01*
X6423095Y-6230428D01*
X6423095Y-6249476D01*
X6499286Y-6049476D02*
X6623095Y-6049476D01*
X6556428Y-6125667D01*
X6585000Y-6125667D01*
X6604048Y-6135190D01*
X6613571Y-6144714D01*
X6623095Y-6163762D01*
X6623095Y-6211381D01*
X6613571Y-6230428D01*
X6604048Y-6239952D01*
X6585000Y-6249476D01*
X6527857Y-6249476D01*
X6508809Y-6239952D01*
X6499286Y-6230428D01*
X6746905Y-6049476D02*
X6765952Y-6049476D01*
X6785000Y-6059000D01*
X6794524Y-6068524D01*
X6804048Y-6087571D01*
X6813571Y-6125667D01*
X6813571Y-6173286D01*
X6804048Y-6211381D01*
X6794524Y-6230428D01*
X6785000Y-6239952D01*
X6765952Y-6249476D01*
X6746905Y-6249476D01*
X6727857Y-6239952D01*
X6718333Y-6230428D01*
X6708809Y-6211381D01*
X6699286Y-6173286D01*
X6699286Y-6125667D01*
X6708809Y-6087571D01*
X6718333Y-6068524D01*
X6727857Y-6059000D01*
X6746905Y-6049476D01*
X6937381Y-6049476D02*
X6956428Y-6049476D01*
X6975476Y-6059000D01*
X6985000Y-6068524D01*
X6994524Y-6087571D01*
X7004048Y-6125667D01*
X7004048Y-6173286D01*
X6994524Y-6211381D01*
X6985000Y-6230428D01*
X6975476Y-6239952D01*
X6956428Y-6249476D01*
X6937381Y-6249476D01*
X6918333Y-6239952D01*
X6908809Y-6230428D01*
X6899286Y-6211381D01*
X6889762Y-6173286D01*
X6889762Y-6125667D01*
X6899286Y-6087571D01*
X6908809Y-6068524D01*
X6918333Y-6059000D01*
X6937381Y-6049476D01*
X7089762Y-6249476D02*
X7089762Y-6116143D01*
X7089762Y-6135190D02*
X7099286Y-6125667D01*
X7118333Y-6116143D01*
X7146905Y-6116143D01*
X7165952Y-6125667D01*
X7175476Y-6144714D01*
X7175476Y-6249476D01*
X7175476Y-6144714D02*
X7185000Y-6125667D01*
X7204048Y-6116143D01*
X7232619Y-6116143D01*
X7251667Y-6125667D01*
X7261190Y-6144714D01*
X7261190Y-6249476D01*
X7356428Y-6249476D02*
X7356428Y-6116143D01*
X7356428Y-6135190D02*
X7365952Y-6125667D01*
X7385000Y-6116143D01*
X7413571Y-6116143D01*
X7432619Y-6125667D01*
X7442143Y-6144714D01*
X7442143Y-6249476D01*
X7442143Y-6144714D02*
X7451667Y-6125667D01*
X7470714Y-6116143D01*
X7499286Y-6116143D01*
X7518333Y-6125667D01*
X7527857Y-6144714D01*
X7527857Y-6249476D01*
X7918333Y-6039952D02*
X7746905Y-6297095D01*
X8175476Y-6049476D02*
X8194524Y-6049476D01*
X8213571Y-6059000D01*
X8223095Y-6068524D01*
X8232619Y-6087571D01*
X8242143Y-6125667D01*
X8242143Y-6173286D01*
X8232619Y-6211381D01*
X8223095Y-6230428D01*
X8213571Y-6239952D01*
X8194524Y-6249476D01*
X8175476Y-6249476D01*
X8156428Y-6239952D01*
X8146905Y-6230428D01*
X8137381Y-6211381D01*
X8127857Y-6173286D01*
X8127857Y-6125667D01*
X8137381Y-6087571D01*
X8146905Y-6068524D01*
X8156428Y-6059000D01*
X8175476Y-6049476D01*
X8327857Y-6230428D02*
X8337381Y-6239952D01*
X8327857Y-6249476D01*
X8318333Y-6239952D01*
X8327857Y-6230428D01*
X8327857Y-6249476D01*
X8461190Y-6049476D02*
X8480238Y-6049476D01*
X8499286Y-6059000D01*
X8508810Y-6068524D01*
X8518333Y-6087571D01*
X8527857Y-6125667D01*
X8527857Y-6173286D01*
X8518333Y-6211381D01*
X8508810Y-6230428D01*
X8499286Y-6239952D01*
X8480238Y-6249476D01*
X8461190Y-6249476D01*
X8442143Y-6239952D01*
X8432619Y-6230428D01*
X8423095Y-6211381D01*
X8413571Y-6173286D01*
X8413571Y-6125667D01*
X8423095Y-6087571D01*
X8432619Y-6068524D01*
X8442143Y-6059000D01*
X8461190Y-6049476D01*
X8718333Y-6249476D02*
X8604048Y-6249476D01*
X8661190Y-6249476D02*
X8661190Y-6049476D01*
X8642143Y-6078048D01*
X8623095Y-6097095D01*
X8604048Y-6106619D01*
X8908810Y-6249476D02*
X8794524Y-6249476D01*
X8851667Y-6249476D02*
X8851667Y-6049476D01*
X8832619Y-6078048D01*
X8813571Y-6097095D01*
X8794524Y-6106619D01*
X9023095Y-6135190D02*
X9004048Y-6125667D01*
X8994524Y-6116143D01*
X8985000Y-6097095D01*
X8985000Y-6087571D01*
X8994524Y-6068524D01*
X9004048Y-6059000D01*
X9023095Y-6049476D01*
X9061190Y-6049476D01*
X9080238Y-6059000D01*
X9089762Y-6068524D01*
X9099286Y-6087571D01*
X9099286Y-6097095D01*
X9089762Y-6116143D01*
X9080238Y-6125667D01*
X9061190Y-6135190D01*
X9023095Y-6135190D01*
X9004048Y-6144714D01*
X8994524Y-6154238D01*
X8985000Y-6173286D01*
X8985000Y-6211381D01*
X8994524Y-6230428D01*
X9004048Y-6239952D01*
X9023095Y-6249476D01*
X9061190Y-6249476D01*
X9080238Y-6239952D01*
X9089762Y-6230428D01*
X9099286Y-6211381D01*
X9099286Y-6173286D01*
X9089762Y-6154238D01*
X9080238Y-6144714D01*
X9061190Y-6135190D01*
X9175476Y-6049476D02*
X9175476Y-6087571D01*
X9251667Y-6049476D02*
X9251667Y-6087571D01*
X9546905Y-6325667D02*
X9537381Y-6316143D01*
X9518333Y-6287571D01*
X9508810Y-6268524D01*
X9499286Y-6239952D01*
X9489762Y-6192333D01*
X9489762Y-6154238D01*
X9499286Y-6106619D01*
X9508810Y-6078048D01*
X9518333Y-6059000D01*
X9537381Y-6030428D01*
X9546905Y-6020905D01*
X9727857Y-6249476D02*
X9613571Y-6249476D01*
X9670714Y-6249476D02*
X9670714Y-6049476D01*
X9651667Y-6078048D01*
X9632619Y-6097095D01*
X9613571Y-6106619D01*
X9842143Y-6135190D02*
X9823095Y-6125667D01*
X9813571Y-6116143D01*
X9804048Y-6097095D01*
X9804048Y-6087571D01*
X9813571Y-6068524D01*
X9823095Y-6059000D01*
X9842143Y-6049476D01*
X9880238Y-6049476D01*
X9899286Y-6059000D01*
X9908810Y-6068524D01*
X9918333Y-6087571D01*
X9918333Y-6097095D01*
X9908810Y-6116143D01*
X9899286Y-6125667D01*
X9880238Y-6135190D01*
X9842143Y-6135190D01*
X9823095Y-6144714D01*
X9813571Y-6154238D01*
X9804048Y-6173286D01*
X9804048Y-6211381D01*
X9813571Y-6230428D01*
X9823095Y-6239952D01*
X9842143Y-6249476D01*
X9880238Y-6249476D01*
X9899286Y-6239952D01*
X9908810Y-6230428D01*
X9918333Y-6211381D01*
X9918333Y-6173286D01*
X9908810Y-6154238D01*
X9899286Y-6144714D01*
X9880238Y-6135190D01*
X10156429Y-6249476D02*
X10156429Y-6049476D01*
X10242143Y-6249476D02*
X10242143Y-6144714D01*
X10232619Y-6125667D01*
X10213571Y-6116143D01*
X10185000Y-6116143D01*
X10165952Y-6125667D01*
X10156429Y-6135190D01*
X10365952Y-6249476D02*
X10346905Y-6239952D01*
X10337381Y-6230428D01*
X10327857Y-6211381D01*
X10327857Y-6154238D01*
X10337381Y-6135190D01*
X10346905Y-6125667D01*
X10365952Y-6116143D01*
X10394524Y-6116143D01*
X10413571Y-6125667D01*
X10423095Y-6135190D01*
X10432619Y-6154238D01*
X10432619Y-6211381D01*
X10423095Y-6230428D01*
X10413571Y-6239952D01*
X10394524Y-6249476D01*
X10365952Y-6249476D01*
X10546905Y-6249476D02*
X10527857Y-6239952D01*
X10518333Y-6220905D01*
X10518333Y-6049476D01*
X10699286Y-6239952D02*
X10680238Y-6249476D01*
X10642143Y-6249476D01*
X10623095Y-6239952D01*
X10613571Y-6220905D01*
X10613571Y-6144714D01*
X10623095Y-6125667D01*
X10642143Y-6116143D01*
X10680238Y-6116143D01*
X10699286Y-6125667D01*
X10708810Y-6144714D01*
X10708810Y-6163762D01*
X10613571Y-6182809D01*
X10785000Y-6239952D02*
X10804048Y-6249476D01*
X10842143Y-6249476D01*
X10861190Y-6239952D01*
X10870714Y-6220905D01*
X10870714Y-6211381D01*
X10861190Y-6192333D01*
X10842143Y-6182809D01*
X10813571Y-6182809D01*
X10794524Y-6173286D01*
X10785000Y-6154238D01*
X10785000Y-6144714D01*
X10794524Y-6125667D01*
X10813571Y-6116143D01*
X10842143Y-6116143D01*
X10861190Y-6125667D01*
X10937381Y-6325667D02*
X10946905Y-6316143D01*
X10965952Y-6287571D01*
X10975476Y-6268524D01*
X10985000Y-6239952D01*
X10994524Y-6192333D01*
X10994524Y-6154238D01*
X10985000Y-6106619D01*
X10975476Y-6078048D01*
X10965952Y-6059000D01*
X10946905Y-6030428D01*
X10937381Y-6020905D01*
M02*
