%TF.GenerationSoftware,KiCad,Pcbnew,6.0.4-6f826c9f35~116~ubuntu20.04.1*%
%TF.CreationDate,2022-03-30T22:07:09-04:00*%
%TF.ProjectId,v0.1_TACS_board,76302e31-5f54-4414-9353-5f626f617264,rev?*%
%TF.SameCoordinates,Original*%
%TF.FileFunction,Copper,L2,Bot*%
%TF.FilePolarity,Positive*%
%FSLAX46Y46*%
G04 Gerber Fmt 4.6, Leading zero omitted, Abs format (unit mm)*
G04 Created by KiCad (PCBNEW 6.0.4-6f826c9f35~116~ubuntu20.04.1) date 2022-03-30 22:07:09*
%MOMM*%
%LPD*%
G01*
G04 APERTURE LIST*
%TA.AperFunction,ViaPad*%
%ADD10C,0.500000*%
%TD*%
%TA.AperFunction,ViaPad*%
%ADD11C,0.600000*%
%TD*%
%TA.AperFunction,Conductor*%
%ADD12C,0.150000*%
%TD*%
%TA.AperFunction,Conductor*%
%ADD13C,0.300000*%
%TD*%
G04 APERTURE END LIST*
D10*
%TO.N,/SET_V_GPIO*%
X63600000Y-50000000D03*
D11*
%TO.N,-9V*%
X71434382Y-37546848D03*
D10*
%TO.N,Net-(R1-Pad2)*%
X72775500Y-37224500D03*
X75200000Y-39700000D03*
%TO.N,Net-(Q5-Pad3)*%
X83800000Y-41900000D03*
X68800000Y-37000000D03*
%TO.N,Net-(Q1-Pad1)*%
X67900000Y-36100000D03*
D11*
%TO.N,-BATT*%
X71400000Y-48200000D03*
%TO.N,+9V*%
X69500000Y-40200000D03*
X67300000Y-48700000D03*
%TO.N,-BATT*%
X61200000Y-37100000D03*
X62200000Y-38500000D03*
X61600000Y-37900000D03*
%TO.N,+9V*%
X73400000Y-40000000D03*
X73500000Y-44500000D03*
%TO.N,-BATT*%
X80800000Y-48700000D03*
X81600000Y-48900000D03*
X75900000Y-42700000D03*
X76100000Y-44000000D03*
X82400000Y-48900000D03*
D10*
%TO.N,Net-(Q2-Pad1)*%
X77575489Y-52024511D03*
%TO.N,Net-(C4-Pad2)*%
X68400000Y-41700000D03*
X67500000Y-43000000D03*
%TO.N,Net-(Q2-Pad2)*%
X76500000Y-49300000D03*
X76800000Y-47500000D03*
D11*
%TO.N,-BATT*%
X66700000Y-39600000D03*
X62025500Y-43400000D03*
%TO.N,-9V*%
X71100000Y-44100000D03*
X67200000Y-47500000D03*
D10*
%TO.N,Net-(Q1-Pad3)*%
X64925000Y-36000000D03*
X79424500Y-39349500D03*
%TO.N,Net-(Q1-Pad1)*%
X78200000Y-40700000D03*
X81700000Y-38600000D03*
%TO.N,/SET_V_GPIO*%
X75200000Y-45400000D03*
%TO.N,Net-(C2-Pad1)*%
X64600000Y-41400000D03*
X62600000Y-44800000D03*
%TO.N,Net-(Q3-Pad1)*%
X75600000Y-51200000D03*
X74400000Y-48600000D03*
%TO.N,Net-(Q2-Pad1)*%
X72300000Y-52000000D03*
X81200000Y-52000000D03*
%TD*%
D12*
%TO.N,/SET_V_GPIO*%
X63700000Y-50100000D02*
X63600000Y-50000000D01*
X70500000Y-50100000D02*
X63700000Y-50100000D01*
D13*
%TO.N,-9V*%
X71434382Y-37546848D02*
X71100000Y-37881230D01*
X71100000Y-37881230D02*
X71100000Y-44100000D01*
D12*
%TO.N,Net-(R1-Pad2)*%
X72775500Y-37224500D02*
X72824500Y-37224500D01*
X72824500Y-37224500D02*
X74281630Y-38681630D01*
X74281630Y-38681630D02*
X74281630Y-39700000D01*
X74281630Y-39700000D02*
X75200000Y-39700000D01*
%TO.N,Net-(Q5-Pad3)*%
X78400000Y-41900000D02*
X83800000Y-41900000D01*
X76900000Y-40400000D02*
X78400000Y-41900000D01*
X69500000Y-36700000D02*
X75700000Y-36700000D01*
X75700000Y-36700000D02*
X76900000Y-37900000D01*
X76900000Y-37900000D02*
X76900000Y-40400000D01*
X69100000Y-36700000D02*
X69500000Y-36700000D01*
X68800000Y-37000000D02*
X69100000Y-36700000D01*
%TO.N,Net-(Q1-Pad3)*%
X64925000Y-36000000D02*
X65349511Y-35575489D01*
X65349511Y-35575489D02*
X75650489Y-35575489D01*
X75650489Y-35575489D02*
X79424500Y-39349500D01*
%TO.N,Net-(Q1-Pad1)*%
X68149520Y-36349520D02*
X67900000Y-36100000D01*
X72100000Y-36349520D02*
X68149520Y-36349520D01*
X75849520Y-36349520D02*
X72100000Y-36349520D01*
X78100000Y-38600000D02*
X75849520Y-36349520D01*
X78200000Y-40700000D02*
X78100000Y-40600000D01*
X78100000Y-40600000D02*
X78100000Y-38600000D01*
D13*
%TO.N,-BATT*%
X71400000Y-47700000D02*
X71400000Y-48200000D01*
X74300000Y-44800000D02*
X71400000Y-47700000D01*
X75600000Y-43500000D02*
X74300000Y-44800000D01*
%TO.N,+9V*%
X67918548Y-40200000D02*
X69500000Y-40200000D01*
X66918548Y-41200000D02*
X67918548Y-40200000D01*
X66900000Y-41200000D02*
X66918548Y-41200000D01*
X67300000Y-48700000D02*
X66550489Y-47950489D01*
X66550489Y-47950489D02*
X66550489Y-41549511D01*
X66550489Y-41549511D02*
X66900000Y-41200000D01*
%TO.N,-BATT*%
X61600000Y-37900000D02*
X61600000Y-37500000D01*
X61600000Y-37500000D02*
X61200000Y-37100000D01*
X66700000Y-39600000D02*
X66700000Y-40100000D01*
X66700000Y-40100000D02*
X66900000Y-40300000D01*
X61600000Y-37900000D02*
X64400000Y-40700000D01*
X64400000Y-40700000D02*
X64700000Y-40700000D01*
%TO.N,+9V*%
X73500000Y-44500000D02*
X73500000Y-40100000D01*
X73500000Y-40100000D02*
X73400000Y-40000000D01*
%TO.N,-BATT*%
X80800000Y-48700000D02*
X81400000Y-48700000D01*
X81400000Y-48700000D02*
X81600000Y-48900000D01*
X82400000Y-48900000D02*
X81600000Y-48900000D01*
X75900000Y-42700000D02*
X75600000Y-43000000D01*
X75600000Y-43000000D02*
X75600000Y-43500000D01*
X82400000Y-48900000D02*
X81000000Y-48900000D01*
X81000000Y-48900000D02*
X75600000Y-43500000D01*
X82400000Y-48900000D02*
X81000000Y-48900000D01*
D12*
%TO.N,Net-(Q2-Pad1)*%
X77575489Y-52024511D02*
X72324511Y-52024511D01*
%TO.N,Net-(C4-Pad2)*%
X68400000Y-41700000D02*
X67500000Y-42600000D01*
X67500000Y-42600000D02*
X67500000Y-43000000D01*
%TO.N,Net-(Q2-Pad2)*%
X76800000Y-47500000D02*
X76500000Y-47800000D01*
X76500000Y-47800000D02*
X76500000Y-49300000D01*
D13*
%TO.N,-BATT*%
X64452162Y-40700000D02*
X64700000Y-40700000D01*
X62025500Y-43126662D02*
X64452162Y-40700000D01*
X62025500Y-43400000D02*
X62025500Y-43126662D01*
X64700000Y-40700000D02*
X65600000Y-40700000D01*
X65600000Y-40700000D02*
X66700000Y-39600000D01*
%TO.N,-9V*%
X70600000Y-44100000D02*
X71100000Y-44100000D01*
X67200000Y-47500000D02*
X70600000Y-44100000D01*
D12*
%TO.N,Net-(Q1-Pad1)*%
X79600000Y-40700000D02*
X78200000Y-40700000D01*
X81700000Y-38600000D02*
X79600000Y-40700000D01*
%TO.N,/SET_V_GPIO*%
X70500000Y-50100000D02*
X75200000Y-45400000D01*
%TO.N,Net-(C2-Pad1)*%
X62600000Y-43400000D02*
X64600000Y-41400000D01*
X62600000Y-44800000D02*
X62600000Y-43400000D01*
%TO.N,Net-(Q3-Pad1)*%
X75600000Y-49800000D02*
X75600000Y-51200000D01*
X74400000Y-48600000D02*
X75600000Y-49800000D01*
%TO.N,Net-(Q2-Pad1)*%
X81200000Y-52000000D02*
X81175489Y-52024511D01*
X72324511Y-52024511D02*
X72300000Y-52000000D01*
X81175489Y-52024511D02*
X77575489Y-52024511D01*
%TD*%
M02*
