%FSLAX45Y45*%
G04 Gerber Fmt 4.5, Leading zero omitted, Abs format (unit mm)*
G04 Created by KiCad (PCBNEW 6.0.4-6f826c9f35~116~ubuntu20.04.1) date 2022-03-30 22:07:18*
%MOMM*%
%LPD*%
G01*
G04 APERTURE LIST*
%TA.AperFunction,Profile*%
%ADD10C,0.100000*%
%TD*%
%ADD11C,0.200000*%
G04 APERTURE END LIST*
D10*
X5980000Y-5250000D02*
X5980000Y-3400000D01*
X8440000Y-5250000D02*
X5980000Y-5250000D01*
X8440000Y-3400000D02*
X8440000Y-5250000D01*
X5980000Y-3400000D02*
X8440000Y-3400000D01*
D11*
X6232619Y-5565476D02*
X6232619Y-5365476D01*
X6280238Y-5365476D01*
X6308809Y-5375000D01*
X6327857Y-5394048D01*
X6337381Y-5413095D01*
X6346905Y-5451190D01*
X6346905Y-5479762D01*
X6337381Y-5517857D01*
X6327857Y-5536905D01*
X6308809Y-5555952D01*
X6280238Y-5565476D01*
X6232619Y-5565476D01*
X6432619Y-5565476D02*
X6432619Y-5432143D01*
X6432619Y-5470238D02*
X6442143Y-5451190D01*
X6451667Y-5441667D01*
X6470714Y-5432143D01*
X6489762Y-5432143D01*
X6556428Y-5565476D02*
X6556428Y-5432143D01*
X6556428Y-5365476D02*
X6546905Y-5375000D01*
X6556428Y-5384524D01*
X6565952Y-5375000D01*
X6556428Y-5365476D01*
X6556428Y-5384524D01*
X6680238Y-5565476D02*
X6661190Y-5555952D01*
X6651667Y-5536905D01*
X6651667Y-5365476D01*
X6785000Y-5565476D02*
X6765952Y-5555952D01*
X6756428Y-5536905D01*
X6756428Y-5365476D01*
X7013571Y-5565476D02*
X7013571Y-5365476D01*
X7080238Y-5508333D01*
X7146905Y-5365476D01*
X7146905Y-5565476D01*
X7327857Y-5565476D02*
X7327857Y-5460714D01*
X7318333Y-5441667D01*
X7299286Y-5432143D01*
X7261190Y-5432143D01*
X7242143Y-5441667D01*
X7327857Y-5555952D02*
X7308809Y-5565476D01*
X7261190Y-5565476D01*
X7242143Y-5555952D01*
X7232619Y-5536905D01*
X7232619Y-5517857D01*
X7242143Y-5498810D01*
X7261190Y-5489286D01*
X7308809Y-5489286D01*
X7327857Y-5479762D01*
X7423095Y-5432143D02*
X7423095Y-5632143D01*
X7423095Y-5441667D02*
X7442143Y-5432143D01*
X7480238Y-5432143D01*
X7499286Y-5441667D01*
X7508809Y-5451190D01*
X7518333Y-5470238D01*
X7518333Y-5527381D01*
X7508809Y-5546429D01*
X7499286Y-5555952D01*
X7480238Y-5565476D01*
X7442143Y-5565476D01*
X7423095Y-5555952D01*
X7604048Y-5546429D02*
X7613571Y-5555952D01*
X7604048Y-5565476D01*
X7594524Y-5555952D01*
X7604048Y-5546429D01*
X7604048Y-5565476D01*
X7604048Y-5441667D02*
X7613571Y-5451190D01*
X7604048Y-5460714D01*
X7594524Y-5451190D01*
X7604048Y-5441667D01*
X7604048Y-5460714D01*
M02*
